<svg width="172" height="32" viewBox="0 0 172 32" fill="none" xmlns="http://www.w3.org/2000/svg">
<path d="M1.376 32C0.976 32 0.776 31.8 0.776 31.4V0.607998C0.776 0.207998 0.976 0.00799847 1.376 0.00799847H9.344C9.744 0.00799847 9.944 0.207998 9.944 0.607998V11.384H11.384L12.944 5.384L14.072 0.319999C14.104 0.191998 14.192 0.111999 14.336 0.079999C14.48 0.0319986 14.648 0.00799847 14.84 0.00799847H22.448C22.848 0.00799847 23.048 0.207998 23.048 0.607998V5.48C23.048 5.64 23.016 5.792 22.952 5.936C22.904 6.064 22.856 6.192 22.808 6.32L19.544 13.808L18.488 15.8L19.568 17.816L23.408 25.832C23.488 25.96 23.536 26.096 23.552 26.24C23.584 26.368 23.6 26.536 23.6 26.744V31.4C23.6 31.8 23.4 32 23 32H15.224C15.112 32 14.976 31.976 14.816 31.928C14.656 31.88 14.552 31.784 14.504 31.64L12.92 25.88L11.552 21.632H9.944V31.4C9.944 31.8 9.744 32 9.344 32H1.376ZM27.3448 32C26.9448 32 26.7448 31.8 26.7448 31.4V0.607998C26.7448 0.207998 26.9448 0.00799847 27.3448 0.00799847H41.3368C41.7368 0.00799847 42.0568 0.111999 42.2968 0.319999L47.8168 5.792C47.9928 5.952 48.0968 6.088 48.1288 6.2C48.1768 6.312 48.2008 6.496 48.2008 6.752V13.328C48.2008 13.536 48.0888 13.752 47.8648 13.976L44.8408 16.976L43.5928 18.056L45.5608 20.816L48.4408 26.6C48.5208 26.744 48.5768 26.888 48.6088 27.032C48.6408 27.16 48.6568 27.32 48.6568 27.512V31.4C48.6568 31.8 48.4568 32 48.0568 32H40.9768C40.6248 32 40.3848 31.84 40.2568 31.52L36.7288 21.92H35.7448V31.4C35.7448 31.8 35.5448 32 35.1448 32H27.3448ZM37.4728 13.616C38.4168 13.616 39.1048 13.384 39.5368 12.92C39.9688 12.44 40.1848 11.696 40.1848 10.688C40.1848 9.68 39.9688 8.944 39.5368 8.48C39.1048 8 38.4168 7.76 37.4728 7.76C36.5608 7.76 35.8808 8 35.4328 8.48C34.9848 8.944 34.7608 9.68 34.7608 10.688C34.7608 11.696 34.9848 12.44 35.4328 12.92C35.8808 13.384 36.5608 13.616 37.4728 13.616ZM52.001 32C51.601 32 51.401 31.8 51.401 31.4V0.607998C51.401 0.207998 51.601 0.00799847 52.001 0.00799847H68.729C69.129 0.00799847 69.329 0.207998 69.329 0.607998V7.688C69.329 8.088 69.129 8.288 68.729 8.288H60.569V12.272H68.393C68.793 12.272 68.993 12.472 68.993 12.872V19.136C68.993 19.536 68.793 19.736 68.393 19.736H60.569V23.72H68.729C69.129 23.72 69.329 23.92 69.329 24.32V31.4C69.329 31.8 69.129 32 68.729 32H52.001ZM73.3978 32C72.9978 32 72.7978 31.8 72.7978 31.4V9.152C72.7978 8.912 72.8778 8.672 73.0378 8.432L78.7258 0.367998C78.9018 0.127998 79.1578 0.00799847 79.4938 0.00799847H87.8218C88.1738 0.00799847 88.4298 0.127998 88.5898 0.367998L94.3018 8.432C94.4618 8.656 94.5418 8.896 94.5418 9.152V31.4C94.5418 31.8 94.3418 32 93.9418 32H85.9738C85.5738 32 85.3738 31.8 85.3738 31.4V21.896H81.9658V31.4C81.9658 31.8 81.7658 32 81.3658 32H73.3978ZM83.6698 14.888C84.6778 14.888 85.4138 14.632 85.8778 14.12C86.3578 13.592 86.5978 12.752 86.5978 11.6C86.5978 10.448 86.3578 9.608 85.8778 9.08C85.4138 8.552 84.6778 8.288 83.6698 8.288C82.6618 8.288 81.9258 8.552 81.4618 9.08C80.9978 9.608 80.7658 10.448 80.7658 11.6C80.7658 12.752 80.9978 13.592 81.4618 14.12C81.9258 14.632 82.6618 14.888 83.6698 14.888ZM102.626 32C102.226 32 102.026 31.8 102.026 31.4V8.288H98.6416C98.2416 8.288 98.0416 8.088 98.0416 7.688V0.607998C98.0416 0.207998 98.2416 0.00799847 98.6416 0.00799847H114.578C114.978 0.00799847 115.178 0.207998 115.178 0.607998V7.688C115.178 8.088 114.978 8.288 114.578 8.288H111.194V31.4C111.194 31.8 110.994 32 110.594 32H102.626ZM119.314 32C118.914 32 118.714 31.8 118.714 31.4V0.607998C118.714 0.207998 118.914 0.00799847 119.314 0.00799847H127.282C127.682 0.00799847 127.882 0.207998 127.882 0.607998V31.4C127.882 31.8 127.682 32 127.282 32H119.314ZM140.177 32C139.793 32 139.473 31.896 139.217 31.688L136.049 28.64L131.753 23.864C131.577 23.656 131.465 23.512 131.417 23.432C131.369 23.352 131.345 23.192 131.345 22.952V9.056C131.345 8.8 131.369 8.632 131.417 8.552C131.465 8.472 131.577 8.336 131.753 8.144L135.377 4.04L139.217 0.319999C139.377 0.175998 139.521 0.0879974 139.649 0.0559978C139.777 0.0239983 139.953 0.00799847 140.177 0.00799847H146.585C146.985 0.00799847 147.185 0.207998 147.185 0.607998V6.08C147.185 6.224 147.169 6.36 147.137 6.488C147.121 6.6 147.041 6.72 146.897 6.848L143.177 9.944L140.489 13.016V19.232L143.393 22.472L146.897 25.376C147.025 25.488 147.105 25.608 147.137 25.736C147.169 25.848 147.185 25.968 147.185 26.096V31.4C147.185 31.8 146.985 32 146.585 32H140.177ZM150.788 32C150.388 32 150.188 31.8 150.188 31.4V9.152C150.188 8.912 150.268 8.672 150.428 8.432L156.116 0.367998C156.292 0.127998 156.548 0.00799847 156.884 0.00799847H165.212C165.564 0.00799847 165.82 0.127998 165.98 0.367998L171.692 8.432C171.852 8.656 171.932 8.896 171.932 9.152V31.4C171.932 31.8 171.732 32 171.332 32H163.364C162.964 32 162.764 31.8 162.764 31.4V21.896H159.356V31.4C159.356 31.8 159.156 32 158.756 32H150.788ZM161.06 14.888C162.068 14.888 162.804 14.632 163.268 14.12C163.748 13.592 163.988 12.752 163.988 11.6C163.988 10.448 163.748 9.608 163.268 9.08C162.804 8.552 162.068 8.288 161.06 8.288C160.052 8.288 159.316 8.552 158.852 9.08C158.388 9.608 158.156 10.448 158.156 11.6C158.156 12.752 158.388 13.592 158.852 14.12C159.316 14.632 160.052 14.888 161.06 14.888Z" fill="black"/>
</svg>
